<svg width="295" height="31" viewBox="0 0 295 31" fill="none" xmlns="http://www.w3.org/2000/svg">
<path d="M21.689 4.51307C21.689 4.93663 21.6671 5.30177 21.6233 5.60848C21.5941 5.90059 21.543 6.14158 21.47 6.33145C21.3969 6.50671 21.302 6.63816 21.1852 6.72579C21.0829 6.81343 20.9661 6.85724 20.8346 6.85724H13.7364V29.7074C13.7364 29.8535 13.6853 29.9849 13.583 30.1018C13.4954 30.2186 13.342 30.3135 13.123 30.3866C12.9039 30.4596 12.6045 30.518 12.2247 30.5618C11.8596 30.6057 11.3995 30.6276 10.8445 30.6276C10.2895 30.6276 9.82214 30.6057 9.4424 30.5618C9.07727 30.518 8.78516 30.4596 8.56608 30.3866C8.347 30.3135 8.18634 30.2186 8.0841 30.1018C7.99647 29.9849 7.95265 29.8535 7.95265 29.7074V6.85724H0.854417C0.708363 6.85724 0.584217 6.81343 0.481979 6.72579C0.379741 6.63816 0.292108 6.50671 0.219081 6.33145C0.146054 6.14158 0.0876325 5.90059 0.0438162 5.60848C0.0146054 5.30177 0 4.93663 0 4.51307C0 4.07491 0.0146054 3.70247 0.0438162 3.39576C0.0876325 3.08905 0.146054 2.84806 0.219081 2.67279C0.292108 2.48292 0.379741 2.35147 0.481979 2.27845C0.584217 2.19081 0.708363 2.147 0.854417 2.147H20.8346C20.9661 2.147 21.0829 2.19081 21.1852 2.27845C21.302 2.35147 21.3969 2.48292 21.47 2.67279C21.543 2.84806 21.5941 3.08905 21.6233 3.39576C21.6671 3.70247 21.689 4.07491 21.689 4.51307Z" fill="white"/>
<path d="M33.1979 12.0276C33.1979 12.5534 33.1833 12.9842 33.1541 13.3201C33.1249 13.6561 33.081 13.919 33.0226 14.1088C32.9642 14.2987 32.8839 14.4302 32.7816 14.5032C32.694 14.5762 32.5772 14.6127 32.4311 14.6127C32.3143 14.6127 32.1828 14.5908 32.0368 14.547C31.8907 14.4886 31.7227 14.4302 31.5329 14.3717C31.3576 14.3133 31.1604 14.2622 30.9414 14.2184C30.7223 14.16 30.4813 14.1307 30.2184 14.1307C29.9117 14.1307 29.605 14.1965 29.2982 14.3279C28.9915 14.4448 28.6702 14.6346 28.3343 14.8975C28.013 15.1604 27.6697 15.511 27.3046 15.9491C26.9541 16.3873 26.5743 16.9277 26.1654 17.5703V29.7512C26.1654 29.8973 26.1216 30.0287 26.0339 30.1456C25.9463 30.2478 25.7929 30.3355 25.5739 30.4085C25.3694 30.4815 25.0919 30.5326 24.7414 30.5618C24.3908 30.6057 23.9454 30.6276 23.405 30.6276C22.8646 30.6276 22.4191 30.6057 22.0686 30.5618C21.718 30.5326 21.4332 30.4815 21.2141 30.4085C21.0097 30.3355 20.8636 30.2478 20.776 30.1456C20.6883 30.0287 20.6445 29.8973 20.6445 29.7512V10.2092C20.6445 10.0631 20.681 9.93899 20.7541 9.83675C20.8271 9.71991 20.9585 9.62497 21.1484 9.55194C21.3383 9.47892 21.5793 9.4278 21.8714 9.39859C22.1781 9.35477 22.5578 9.33286 23.0106 9.33286C23.478 9.33286 23.865 9.35477 24.1717 9.39859C24.4785 9.4278 24.7121 9.47892 24.8728 9.55194C25.0481 9.62497 25.1722 9.71991 25.2452 9.83675C25.3183 9.93899 25.3548 10.0631 25.3548 10.2092V12.641C25.866 11.9107 26.3479 11.3119 26.8007 10.8445C27.2535 10.3625 27.6843 9.9828 28.0933 9.7053C28.5022 9.4278 28.9112 9.23793 29.3202 9.13569C29.7291 9.01885 30.1381 8.96042 30.547 8.96042C30.7369 8.96042 30.9414 8.97503 31.1604 9.00424C31.3795 9.01885 31.6059 9.05536 31.8396 9.11378C32.0733 9.1576 32.2777 9.21602 32.453 9.28905C32.6283 9.34747 32.7524 9.41319 32.8255 9.48622C32.9131 9.55925 32.9715 9.63958 33.0007 9.72721C33.0445 9.81484 33.081 9.93899 33.1103 10.0996C33.1395 10.2457 33.1614 10.4721 33.176 10.7788C33.1906 11.0855 33.1979 11.5018 33.1979 12.0276Z" fill="white"/>
<path d="M40.3689 29.7512C40.3689 29.8973 40.3251 30.0287 40.2375 30.1456C40.1498 30.2478 39.9965 30.3355 39.7774 30.4085C39.5729 30.4815 39.2954 30.5326 38.9449 30.5618C38.5944 30.6057 38.1489 30.6276 37.6085 30.6276C37.0681 30.6276 36.6226 30.6057 36.2721 30.5618C35.9216 30.5326 35.6368 30.4815 35.4177 30.4085C35.2132 30.3355 35.0672 30.2478 34.9795 30.1456C34.8919 30.0287 34.8481 29.8973 34.8481 29.7512V10.253C34.8481 10.1069 34.8919 9.9828 34.9795 9.88057C35.0672 9.76372 35.2132 9.66879 35.4177 9.59576C35.6368 9.50813 35.9216 9.4424 36.2721 9.39859C36.6226 9.35477 37.0681 9.33286 37.6085 9.33286C38.1489 9.33286 38.5944 9.35477 38.9449 9.39859C39.2954 9.4424 39.5729 9.50813 39.7774 9.59576C39.9965 9.66879 40.1498 9.76372 40.2375 9.88057C40.3251 9.9828 40.3689 10.1069 40.3689 10.253V29.7512ZM40.7852 3.59293C40.7852 4.70294 40.5588 5.46973 40.106 5.89329C39.6533 6.31684 38.8134 6.52862 37.5866 6.52862C36.3451 6.52862 35.5053 6.32415 35.0672 5.91519C34.6436 5.50624 34.4318 4.76867 34.4318 3.70247C34.4318 2.59246 34.6509 1.82568 35.0891 1.40212C35.5418 0.963958 36.3889 0.744876 37.6304 0.744876C38.8573 0.744876 39.6898 0.956655 40.1279 1.38021C40.5661 1.78916 40.7852 2.52674 40.7852 3.59293Z" fill="white"/>
<path d="M63.8177 19.7173C63.8177 21.4554 63.6278 23.0181 63.2481 24.4057C62.8683 25.7932 62.3206 26.9762 61.605 27.9548C60.8893 28.9333 60.0057 29.6855 58.9541 30.2113C57.9171 30.7371 56.7341 31 55.405 31C54.7477 31 54.1343 30.9343 53.5647 30.8028C52.9951 30.686 52.4474 30.4888 51.9216 30.2113C51.4104 29.9338 50.8992 29.5833 50.388 29.1597C49.8914 28.7362 49.3802 28.225 48.8545 27.6261V29.7512C48.8545 29.9119 48.8106 30.0506 48.723 30.1675C48.65 30.2697 48.5185 30.3574 48.3287 30.4304C48.1534 30.5034 47.9124 30.5545 47.6057 30.5837C47.299 30.613 46.9265 30.6276 46.4884 30.6276C46.0356 30.6276 45.6559 30.613 45.3492 30.5837C45.057 30.5545 44.8161 30.5034 44.6262 30.4304C44.4509 30.3574 44.3268 30.2697 44.2537 30.1675C44.1807 30.0506 44.1442 29.9119 44.1442 29.7512V0.942049C44.1442 0.795995 44.188 0.664547 44.2757 0.547703C44.3633 0.43086 44.5093 0.335925 44.7138 0.262898C44.9329 0.175265 45.2177 0.109541 45.5682 0.0657244C45.9188 0.0219081 46.3642 0 46.9046 0C47.445 0 47.8905 0.0219081 48.241 0.0657244C48.5916 0.109541 48.8691 0.175265 49.0735 0.262898C49.2926 0.335925 49.446 0.43086 49.5336 0.547703C49.6212 0.664547 49.6651 0.795995 49.6651 0.942049V11.7428C50.1616 11.2462 50.6582 10.8226 51.1548 10.4721C51.6514 10.1216 52.148 9.83675 52.6446 9.61767C53.1411 9.38398 53.6523 9.21602 54.1781 9.11378C54.7039 9.01154 55.2589 8.96042 55.8431 8.96042C57.2891 8.96042 58.5159 9.25253 59.5237 9.83675C60.5315 10.4064 61.3494 11.1804 61.9774 12.159C62.6201 13.1376 63.0874 14.2841 63.3795 15.5986C63.6716 16.8985 63.8177 18.2714 63.8177 19.7173ZM58.0997 20.1117C58.0997 19.2792 58.034 18.4759 57.9025 17.7018C57.7857 16.9277 57.5739 16.2412 57.2672 15.6424C56.9605 15.0436 56.5588 14.5689 56.0622 14.2184C55.5802 13.8532 54.9668 13.6707 54.2219 13.6707C53.8568 13.6707 53.499 13.7218 53.1484 13.824C52.7979 13.9263 52.4328 14.1015 52.053 14.3498C51.6879 14.5981 51.3082 14.9194 50.9138 15.3138C50.5195 15.7081 50.1032 16.1974 49.6651 16.7816V23.2664C50.4391 24.2596 51.1767 25.0191 51.8778 25.5449C52.5934 26.0561 53.3383 26.3117 54.1124 26.3117C54.8281 26.3117 55.4342 26.1291 55.9308 25.764C56.4274 25.3988 56.8363 24.9241 57.1576 24.3399C57.4936 23.7557 57.7345 23.0912 57.8806 22.3463C58.0267 21.6014 58.0997 20.8565 58.0997 20.1117Z" fill="white"/>
<path d="M85.0318 29.7512C85.0318 29.8973 84.9953 30.0287 84.9223 30.1456C84.8493 30.2478 84.7178 30.3355 84.528 30.4085C84.3527 30.4815 84.1117 30.5326 83.805 30.5618C83.5129 30.6057 83.1404 30.6276 82.6877 30.6276C82.2057 30.6276 81.8114 30.6057 81.5046 30.5618C81.2125 30.5326 80.9788 30.4815 80.8036 30.4085C80.6283 30.3355 80.5042 30.2478 80.4311 30.1456C80.3581 30.0287 80.3216 29.8973 80.3216 29.7512V27.4947C79.2408 28.6631 78.1381 29.5395 77.0135 30.1237C75.9035 30.7079 74.7496 31 73.552 31C72.2083 31 71.0764 30.7809 70.1562 30.3428C69.2507 29.9046 68.5131 29.3058 67.9435 28.5463C67.3885 27.7868 66.9869 26.9105 66.7386 25.9173C66.5049 24.9095 66.388 23.6608 66.388 22.171V10.2092C66.388 10.0631 66.4245 9.93899 66.4976 9.83675C66.5852 9.71991 66.7313 9.62497 66.9357 9.55194C67.1548 9.47892 67.4396 9.4278 67.7902 9.39859C68.1553 9.35477 68.6008 9.33286 69.1265 9.33286C69.6669 9.33286 70.1124 9.35477 70.4629 9.39859C70.8135 9.4278 71.091 9.47892 71.2954 9.55194C71.5145 9.62497 71.6679 9.71991 71.7555 9.83675C71.8432 9.93899 71.887 10.0631 71.887 10.2092V21.2509C71.887 22.2733 71.9527 23.0547 72.0841 23.5951C72.2156 24.1355 72.4128 24.6028 72.6757 24.9972C72.9532 25.3769 73.2964 25.6763 73.7053 25.8954C74.1289 26.0999 74.6182 26.2021 75.1732 26.2021C75.8742 26.2021 76.5753 25.9465 77.2764 25.4353C77.992 24.9241 78.7515 24.1793 79.5548 23.2007V10.2092C79.5548 10.0631 79.5913 9.93899 79.6644 9.83675C79.752 9.71991 79.898 9.62497 80.1025 9.55194C80.3216 9.47892 80.6064 9.4278 80.9569 9.39859C81.3075 9.35477 81.7529 9.33286 82.2933 9.33286C82.8337 9.33286 83.2792 9.35477 83.6297 9.39859C83.9803 9.4278 84.2578 9.47892 84.4622 9.55194C84.6667 9.62497 84.8128 9.71991 84.9004 9.83675C84.988 9.93899 85.0318 10.0631 85.0318 10.2092V29.7512Z" fill="white"/>
<path d="M100.418 27.8233C100.418 28.466 100.375 28.9625 100.287 29.3131C100.214 29.649 100.112 29.89 99.9803 30.036C99.8488 30.1675 99.6516 30.2916 99.3887 30.4085C99.1405 30.5107 98.841 30.5984 98.4905 30.6714C98.1546 30.759 97.7822 30.8247 97.3732 30.8686C96.9789 30.9124 96.5772 30.9343 96.1683 30.9343C95.0728 30.9343 94.1235 30.7955 93.3202 30.518C92.5169 30.2405 91.8523 29.817 91.3266 29.2473C90.8008 28.6631 90.4137 27.9329 90.1654 27.0565C89.9171 26.1802 89.793 25.1432 89.793 23.9456V13.9336H87.4488C87.1713 13.9336 86.9595 13.7656 86.8135 13.4297C86.6674 13.0792 86.5944 12.5022 86.5944 11.6989C86.5944 11.2754 86.609 10.9176 86.6382 10.6254C86.682 10.3333 86.7405 10.1069 86.8135 9.94629C86.8865 9.77102 86.9741 9.64688 87.0764 9.57385C87.1932 9.50082 87.3247 9.46431 87.4707 9.46431H89.793V5.10459C89.793 4.95854 89.8295 4.82709 89.9025 4.71025C89.9902 4.5934 90.1362 4.49847 90.3407 4.42544C90.5598 4.33781 90.8446 4.27939 91.1951 4.25018C91.5602 4.20636 92.0057 4.18445 92.5315 4.18445C93.0719 4.18445 93.5174 4.20636 93.8679 4.25018C94.233 4.27939 94.5178 4.33781 94.7223 4.42544C94.9268 4.49847 95.0728 4.5934 95.1605 4.71025C95.2481 4.82709 95.2919 4.95854 95.2919 5.10459V9.46431H99.5421C99.6882 9.46431 99.8123 9.50082 99.9145 9.57385C100.031 9.64688 100.126 9.77102 100.199 9.94629C100.272 10.1069 100.323 10.3333 100.353 10.6254C100.397 10.9176 100.418 11.2754 100.418 11.6989C100.418 12.5022 100.345 13.0792 100.199 13.4297C100.053 13.7656 99.8415 13.9336 99.564 13.9336H95.2919V23.1131C95.2919 24.1793 95.4599 24.9826 95.7958 25.523C96.1317 26.0488 96.7306 26.3117 97.5923 26.3117C97.8844 26.3117 98.1473 26.2898 98.381 26.2459C98.6147 26.1875 98.8191 26.1291 98.9944 26.0707C99.1843 25.9976 99.3376 25.9392 99.4545 25.8954C99.5859 25.837 99.7028 25.8078 99.805 25.8078C99.8926 25.8078 99.973 25.837 100.046 25.8954C100.134 25.9392 100.199 26.0415 100.243 26.2021C100.287 26.3482 100.323 26.5526 100.353 26.8155C100.397 27.0784 100.418 27.4144 100.418 27.8233Z" fill="white"/>
<path d="M120.143 19.4106C120.143 20.0824 119.989 20.579 119.683 20.9004C119.391 21.2217 118.982 21.3823 118.456 21.3823H106.56C106.56 22.2148 106.655 22.9743 106.845 23.6608C107.049 24.3326 107.363 24.9095 107.787 25.3915C108.225 25.8589 108.78 26.2167 109.452 26.465C110.138 26.7133 110.956 26.8375 111.905 26.8375C112.869 26.8375 113.716 26.7717 114.447 26.6403C115.177 26.4942 115.805 26.3409 116.331 26.1802C116.871 26.0049 117.317 25.8516 117.667 25.7201C118.018 25.5741 118.303 25.5011 118.522 25.5011C118.653 25.5011 118.763 25.5303 118.85 25.5887C118.938 25.6325 119.011 25.7201 119.069 25.8516C119.128 25.983 119.164 26.1729 119.179 26.4212C119.208 26.6549 119.223 26.9543 119.223 27.3194C119.223 27.6408 119.215 27.9183 119.201 28.1519C119.186 28.371 119.164 28.5609 119.135 28.7216C119.106 28.8822 119.062 29.021 119.004 29.1378C118.945 29.24 118.865 29.3423 118.763 29.4445C118.675 29.5468 118.419 29.6855 117.996 29.8608C117.572 30.036 117.032 30.2113 116.375 30.3866C115.717 30.5472 114.965 30.686 114.118 30.8028C113.271 30.9343 112.365 31 111.401 31C109.663 31 108.137 30.7809 106.823 30.3428C105.523 29.9046 104.435 29.24 103.558 28.3491C102.682 27.4582 102.025 26.3336 101.587 24.9753C101.163 23.617 100.951 22.025 100.951 20.1993C100.951 18.4612 101.178 16.8985 101.63 15.511C102.083 14.1088 102.74 12.9258 103.602 11.9618C104.464 10.9833 105.508 10.2384 106.735 9.72721C107.977 9.21602 109.371 8.96042 110.92 8.96042C112.555 8.96042 113.95 9.20141 115.104 9.68339C116.272 10.1654 117.229 10.8372 117.974 11.6989C118.719 12.5461 119.266 13.5538 119.617 14.7223C119.968 15.8907 120.143 17.1614 120.143 18.5343V19.4106ZM114.797 17.8332C114.841 16.285 114.527 15.0728 113.855 14.1965C113.198 13.3055 112.176 12.8601 110.788 12.8601C110.087 12.8601 109.474 12.9915 108.948 13.2544C108.437 13.5173 108.006 13.8751 107.655 14.3279C107.319 14.7661 107.056 15.2919 106.867 15.9053C106.691 16.5041 106.589 17.1468 106.56 17.8332H114.797Z" fill="white"/>
<path d="M142.941 27.8233C142.941 28.466 142.898 28.9625 142.81 29.3131C142.737 29.649 142.635 29.89 142.503 30.036C142.372 30.1675 142.175 30.2916 141.912 30.4085C141.663 30.5107 141.364 30.5984 141.014 30.6714C140.678 30.759 140.305 30.8247 139.896 30.8686C139.502 30.9124 139.1 30.9343 138.691 30.9343C137.596 30.9343 136.646 30.7955 135.843 30.518C135.04 30.2405 134.375 29.817 133.85 29.2473C133.324 28.6631 132.937 27.9329 132.688 27.0565C132.44 26.1802 132.316 25.1432 132.316 23.9456V13.9336H129.972C129.694 13.9336 129.483 13.7656 129.336 13.4297C129.19 13.0792 129.117 12.5022 129.117 11.6989C129.117 11.2754 129.132 10.9176 129.161 10.6254C129.205 10.3333 129.263 10.1069 129.336 9.94629C129.41 9.77102 129.497 9.64688 129.599 9.57385C129.716 9.50082 129.848 9.46431 129.994 9.46431H132.316V5.10459C132.316 4.95854 132.353 4.82709 132.426 4.71025C132.513 4.5934 132.659 4.49847 132.864 4.42544C133.083 4.33781 133.368 4.27939 133.718 4.25018C134.083 4.20636 134.529 4.18445 135.055 4.18445C135.595 4.18445 136.04 4.20636 136.391 4.25018C136.756 4.27939 137.041 4.33781 137.245 4.42544C137.45 4.49847 137.596 4.5934 137.683 4.71025C137.771 4.82709 137.815 4.95854 137.815 5.10459V9.46431H142.065C142.211 9.46431 142.335 9.50082 142.438 9.57385C142.554 9.64688 142.649 9.77102 142.722 9.94629C142.795 10.1069 142.846 10.3333 142.876 10.6254C142.92 10.9176 142.941 11.2754 142.941 11.6989C142.941 12.5022 142.868 13.0792 142.722 13.4297C142.576 13.7656 142.365 13.9336 142.087 13.9336H137.815V23.1131C137.815 24.1793 137.983 24.9826 138.319 25.523C138.655 26.0488 139.254 26.3117 140.115 26.3117C140.407 26.3117 140.67 26.2898 140.904 26.2459C141.138 26.1875 141.342 26.1291 141.517 26.0707C141.707 25.9976 141.861 25.9392 141.977 25.8954C142.109 25.837 142.226 25.8078 142.328 25.8078C142.416 25.8078 142.496 25.837 142.569 25.8954C142.657 25.9392 142.722 26.0415 142.766 26.2021C142.81 26.3482 142.846 26.5526 142.876 26.8155C142.92 27.0784 142.941 27.4144 142.941 27.8233Z" fill="white"/>
<path d="M164.506 19.783C164.506 21.4481 164.287 22.967 163.849 24.3399C163.411 25.7128 162.746 26.8959 161.855 27.889C160.964 28.8822 159.847 29.649 158.503 30.1894C157.16 30.7298 155.589 31 153.793 31C152.055 31 150.543 30.759 149.258 30.277C147.973 29.7951 146.907 29.094 146.059 28.1739C145.212 27.2537 144.584 26.1218 144.175 24.7781C143.766 23.4344 143.562 21.9008 143.562 20.1774C143.562 18.5124 143.781 16.9934 144.219 15.6205C144.672 14.233 145.344 13.0499 146.235 12.0714C147.126 11.0782 148.236 10.3114 149.565 9.77102C150.908 9.23062 152.479 8.96042 154.275 8.96042C156.028 8.96042 157.547 9.20141 158.832 9.68339C160.117 10.1508 161.176 10.8445 162.009 11.7647C162.856 12.6848 163.484 13.8167 163.893 15.1604C164.302 16.5041 164.506 18.045 164.506 19.783ZM158.832 20.0021C158.832 19.0382 158.752 18.1545 158.591 17.3512C158.445 16.5333 158.189 15.825 157.824 15.2261C157.459 14.6273 156.97 14.16 156.356 13.824C155.757 13.4881 154.998 13.3201 154.078 13.3201C153.26 13.3201 152.544 13.4735 151.931 13.7802C151.317 14.0723 150.814 14.5105 150.419 15.0947C150.025 15.6643 149.725 16.3581 149.521 17.176C149.331 17.9793 149.236 18.8994 149.236 19.9364C149.236 20.9004 149.316 21.7913 149.477 22.6092C149.638 23.4125 149.893 24.1135 150.244 24.7124C150.609 25.3112 151.098 25.7786 151.712 26.1145C152.325 26.4358 153.085 26.5965 153.99 26.5965C154.823 26.5965 155.546 26.4504 156.159 26.1583C156.773 25.8516 157.276 25.4134 157.671 24.8438C158.065 24.2742 158.357 23.5877 158.547 22.7845C158.737 21.9665 158.832 21.0391 158.832 20.0021Z" fill="white"/>
<path d="M199.113 28.3491C199.288 28.8749 199.398 29.2912 199.442 29.5979C199.486 29.9046 199.427 30.1383 199.267 30.2989C199.106 30.445 198.821 30.5326 198.412 30.5618C198.003 30.6057 197.441 30.6276 196.725 30.6276C195.98 30.6276 195.396 30.613 194.973 30.5837C194.564 30.5691 194.25 30.5326 194.031 30.4742C193.811 30.4012 193.658 30.3062 193.57 30.1894C193.483 30.0726 193.41 29.9192 193.351 29.7293L191.445 24.0332H180.798L179.002 29.576C178.943 29.7804 178.863 29.9557 178.761 30.1018C178.673 30.2332 178.52 30.3428 178.3 30.4304C178.096 30.5034 177.797 30.5545 177.402 30.5837C177.022 30.613 176.519 30.6276 175.891 30.6276C175.219 30.6276 174.693 30.6057 174.313 30.5618C173.933 30.518 173.671 30.4158 173.525 30.2551C173.378 30.0799 173.327 29.8389 173.371 29.5322C173.415 29.2254 173.525 28.8165 173.7 28.3053L182.441 3.15477C182.529 2.90648 182.631 2.70931 182.748 2.56325C182.865 2.40259 183.047 2.28575 183.296 2.21272C183.558 2.12509 183.916 2.07397 184.369 2.05936C184.822 2.03015 185.421 2.01555 186.165 2.01555C187.027 2.01555 187.714 2.03015 188.225 2.05936C188.736 2.07397 189.13 2.12509 189.408 2.21272C189.7 2.28575 189.904 2.40259 190.021 2.56325C190.153 2.72391 190.262 2.94299 190.35 3.22049L199.113 28.3491ZM186.1 7.5583H186.078L182.069 19.6078H190.109L186.1 7.5583Z" fill="white"/>
<path d="M211.192 27.8233C211.192 28.466 211.148 28.9625 211.06 29.3131C210.987 29.649 210.885 29.89 210.753 30.036C210.622 30.1675 210.425 30.2916 210.162 30.4085C209.914 30.5107 209.614 30.5984 209.264 30.6714C208.928 30.759 208.555 30.8247 208.146 30.8686C207.752 30.9124 207.35 30.9343 206.941 30.9343C205.846 30.9343 204.897 30.7955 204.093 30.518C203.29 30.2405 202.626 29.817 202.1 29.2473C201.574 28.6631 201.187 27.9329 200.939 27.0565C200.69 26.1802 200.566 25.1432 200.566 23.9456V13.9336H198.222C197.945 13.9336 197.733 13.7656 197.587 13.4297C197.441 13.0792 197.368 12.5022 197.368 11.6989C197.368 11.2754 197.382 10.9176 197.411 10.6254C197.455 10.3333 197.514 10.1069 197.587 9.94629C197.66 9.77102 197.747 9.64688 197.85 9.57385C197.966 9.50082 198.098 9.46431 198.244 9.46431H200.566V5.10459C200.566 4.95854 200.603 4.82709 200.676 4.71025C200.763 4.5934 200.909 4.49847 201.114 4.42544C201.333 4.33781 201.618 4.27939 201.968 4.25018C202.333 4.20636 202.779 4.18445 203.305 4.18445C203.845 4.18445 204.291 4.20636 204.641 4.25018C205.006 4.27939 205.291 4.33781 205.496 4.42544C205.7 4.49847 205.846 4.5934 205.934 4.71025C206.021 4.82709 206.065 4.95854 206.065 5.10459V9.46431H210.315C210.461 9.46431 210.586 9.50082 210.688 9.57385C210.805 9.64688 210.9 9.77102 210.973 9.94629C211.046 10.1069 211.097 10.3333 211.126 10.6254C211.17 10.9176 211.192 11.2754 211.192 11.6989C211.192 12.5022 211.119 13.0792 210.973 13.4297C210.827 13.7656 210.615 13.9336 210.337 13.9336H206.065V23.1131C206.065 24.1793 206.233 24.9826 206.569 25.523C206.905 26.0488 207.504 26.3117 208.366 26.3117C208.658 26.3117 208.921 26.2898 209.154 26.2459C209.388 26.1875 209.592 26.1291 209.768 26.0707C209.957 25.9976 210.111 25.9392 210.228 25.8954C210.359 25.837 210.476 25.8078 210.578 25.8078C210.666 25.8078 210.746 25.837 210.819 25.8954C210.907 25.9392 210.973 26.0415 211.016 26.2021C211.06 26.3482 211.097 26.5526 211.126 26.8155C211.17 27.0784 211.192 27.4144 211.192 27.8233Z" fill="white"/>
<path d="M229.645 29.817C229.645 30.0214 229.572 30.1821 229.426 30.2989C229.28 30.4158 229.047 30.4961 228.725 30.5399C228.419 30.5984 227.958 30.6276 227.345 30.6276C226.688 30.6276 226.206 30.5984 225.899 30.5399C225.607 30.4961 225.395 30.4158 225.264 30.2989C225.147 30.1821 225.088 30.0214 225.088 29.817V28.2615C224.285 29.1232 223.365 29.7951 222.328 30.277C221.306 30.759 220.166 31 218.91 31C217.873 31 216.917 30.8612 216.04 30.5837C215.179 30.3208 214.427 29.9265 213.784 29.4007C213.156 28.8603 212.667 28.1958 212.316 27.4071C211.966 26.6184 211.79 25.6982 211.79 24.6466C211.79 23.5074 212.009 22.5216 212.447 21.689C212.9 20.8419 213.565 20.1482 214.441 19.6078C215.332 19.0528 216.435 18.6438 217.749 18.3809C219.064 18.118 220.59 17.9866 222.328 17.9866H224.234V16.8035C224.234 16.1901 224.168 15.657 224.037 15.2042C223.92 14.7369 223.716 14.3498 223.423 14.0431C223.146 13.7364 222.766 13.51 222.284 13.364C221.817 13.2179 221.233 13.1449 220.532 13.1449C219.611 13.1449 218.786 13.2471 218.056 13.4516C217.34 13.6561 216.705 13.8824 216.15 14.1307C215.595 14.379 215.128 14.6054 214.748 14.8099C214.383 15.0144 214.083 15.1166 213.85 15.1166C213.689 15.1166 213.543 15.0655 213.411 14.9633C213.295 14.861 213.192 14.715 213.105 14.5251C213.032 14.3352 212.973 14.1015 212.929 13.824C212.886 13.5465 212.864 13.2398 212.864 12.9039C212.864 12.4511 212.9 12.0933 212.973 11.8304C213.046 11.5675 213.185 11.3338 213.39 11.1293C213.594 10.9102 213.952 10.6766 214.463 10.4283C214.974 10.1654 215.573 9.92438 216.26 9.7053C216.946 9.48622 217.691 9.31095 218.494 9.1795C219.312 9.03345 220.152 8.96042 221.014 8.96042C222.547 8.96042 223.854 9.11378 224.935 9.42049C226.031 9.7126 226.929 10.1727 227.63 10.8007C228.331 11.4141 228.842 12.2101 229.163 13.1887C229.485 14.1673 229.645 15.3284 229.645 16.6721V29.817ZM224.234 21.4481H222.131C221.24 21.4481 220.48 21.5138 219.852 21.6452C219.224 21.7767 218.713 21.9739 218.319 22.2367C217.925 22.4996 217.632 22.821 217.443 23.2007C217.267 23.5658 217.18 23.9894 217.18 24.4714C217.18 25.2893 217.435 25.9319 217.946 26.3993C218.472 26.8667 219.195 27.1004 220.115 27.1004C220.889 27.1004 221.598 26.9032 222.24 26.5088C222.898 26.1145 223.562 25.5376 224.234 24.7781V21.4481Z" fill="white"/>
<path d="M252.086 29.7512C252.086 29.8973 252.043 30.0287 251.955 30.1456C251.867 30.2478 251.721 30.3355 251.517 30.4085C251.312 30.4815 251.027 30.5326 250.662 30.5618C250.312 30.6057 249.874 30.6276 249.348 30.6276C248.807 30.6276 248.355 30.6057 247.99 30.5618C247.639 30.5326 247.362 30.4815 247.157 30.4085C246.953 30.3355 246.807 30.2478 246.719 30.1456C246.631 30.0287 246.587 29.8973 246.587 29.7512V18.6C246.587 17.6506 246.514 16.9058 246.368 16.3654C246.237 15.825 246.04 15.3649 245.777 14.9852C245.514 14.5908 245.171 14.2914 244.747 14.0869C244.338 13.8678 243.856 13.7583 243.301 13.7583C242.6 13.7583 241.892 14.0139 241.176 14.5251C240.46 15.0363 239.716 15.7812 238.941 16.7597V29.7512C238.941 29.8973 238.898 30.0287 238.81 30.1456C238.722 30.2478 238.569 30.3355 238.35 30.4085C238.145 30.4815 237.868 30.5326 237.517 30.5618C237.167 30.6057 236.721 30.6276 236.181 30.6276C235.641 30.6276 235.195 30.6057 234.845 30.5618C234.494 30.5326 234.209 30.4815 233.99 30.4085C233.786 30.3355 233.64 30.2478 233.552 30.1456C233.464 30.0287 233.421 29.8973 233.421 29.7512V0.942049C233.421 0.795995 233.464 0.664547 233.552 0.547703C233.64 0.43086 233.786 0.335925 233.99 0.262898C234.209 0.175265 234.494 0.109541 234.845 0.0657244C235.195 0.0219081 235.641 0 236.181 0C236.721 0 237.167 0.0219081 237.517 0.0657244C237.868 0.109541 238.145 0.175265 238.35 0.262898C238.569 0.335925 238.722 0.43086 238.81 0.547703C238.898 0.664547 238.941 0.795995 238.941 0.942049V11.7428C239.891 10.808 240.855 10.1143 241.833 9.66148C242.827 9.19411 243.856 8.96042 244.922 8.96042C246.252 8.96042 247.369 9.17951 248.274 9.61767C249.194 10.0558 249.932 10.6547 250.487 11.4141C251.057 12.1736 251.466 13.0645 251.714 14.0869C251.962 15.0947 252.086 16.3216 252.086 17.7675V29.7512Z" fill="white"/>
<path d="M272.424 29.817C272.424 30.0214 272.351 30.1821 272.205 30.2989C272.059 30.4158 271.825 30.4961 271.504 30.5399C271.197 30.5984 270.737 30.6276 270.124 30.6276C269.467 30.6276 268.985 30.5984 268.678 30.5399C268.386 30.4961 268.174 30.4158 268.043 30.2989C267.926 30.1821 267.867 30.0214 267.867 29.817V28.2615C267.064 29.1232 266.144 29.7951 265.107 30.277C264.084 30.759 262.945 31 261.689 31C260.652 31 259.696 30.8612 258.819 30.5837C257.958 30.3208 257.205 29.9265 256.563 29.4007C255.935 28.8603 255.445 28.1958 255.095 27.4071C254.744 26.6184 254.569 25.6982 254.569 24.6466C254.569 23.5074 254.788 22.5216 255.226 21.689C255.679 20.8419 256.344 20.1482 257.22 19.6078C258.111 19.0528 259.214 18.6438 260.528 18.3809C261.843 18.118 263.369 17.9866 265.107 17.9866H267.013V16.8035C267.013 16.1901 266.947 15.657 266.816 15.2042C266.699 14.7369 266.494 14.3498 266.202 14.0431C265.925 13.7364 265.545 13.51 265.063 13.364C264.596 13.2179 264.011 13.1449 263.31 13.1449C262.39 13.1449 261.565 13.2471 260.835 13.4516C260.119 13.6561 259.484 13.8824 258.929 14.1307C258.374 14.379 257.906 14.6054 257.527 14.8099C257.162 15.0144 256.862 15.1166 256.628 15.1166C256.468 15.1166 256.322 15.0655 256.19 14.9633C256.073 14.861 255.971 14.715 255.884 14.5251C255.811 14.3352 255.752 14.1015 255.708 13.824C255.664 13.5465 255.643 13.2398 255.643 12.9039C255.643 12.4511 255.679 12.0933 255.752 11.8304C255.825 11.5675 255.964 11.3338 256.168 11.1293C256.373 10.9102 256.731 10.6766 257.242 10.4283C257.753 10.1654 258.352 9.92438 259.038 9.7053C259.725 9.48622 260.47 9.31095 261.273 9.1795C262.091 9.03345 262.931 8.96042 263.792 8.96042C265.326 8.96042 266.633 9.11378 267.714 9.42049C268.809 9.7126 269.708 10.1727 270.409 10.8007C271.11 11.4141 271.621 12.2101 271.942 13.1887C272.264 14.1673 272.424 15.3284 272.424 16.6721V29.817ZM267.013 21.4481H264.91C264.019 21.4481 263.259 21.5138 262.631 21.6452C262.003 21.7767 261.492 21.9739 261.098 22.2367C260.703 22.4996 260.411 22.821 260.221 23.2007C260.046 23.5658 259.958 23.9894 259.958 24.4714C259.958 25.2893 260.214 25.9319 260.725 26.3993C261.251 26.8667 261.974 27.1004 262.894 27.1004C263.668 27.1004 264.377 26.9032 265.019 26.5088C265.676 26.1145 266.341 25.5376 267.013 24.7781V21.4481Z" fill="white"/>
<path d="M294.865 29.7512C294.865 29.8973 294.821 30.0287 294.734 30.1456C294.646 30.2478 294.5 30.3355 294.296 30.4085C294.091 30.4815 293.806 30.5326 293.441 30.5618C293.091 30.6057 292.652 30.6276 292.127 30.6276C291.586 30.6276 291.134 30.6057 290.768 30.5618C290.418 30.5326 290.14 30.4815 289.936 30.4085C289.731 30.3355 289.585 30.2478 289.498 30.1456C289.41 30.0287 289.366 29.8973 289.366 29.7512V18.6C289.366 17.6506 289.293 16.9058 289.147 16.3654C289.016 15.825 288.819 15.3649 288.556 14.9852C288.293 14.5908 287.95 14.2914 287.526 14.0869C287.117 13.8678 286.635 13.7583 286.08 13.7583C285.379 13.7583 284.671 14.0139 283.955 14.5251C283.239 15.0363 282.494 15.7812 281.72 16.7597V29.7512C281.72 29.8973 281.676 30.0287 281.589 30.1456C281.501 30.2478 281.348 30.3355 281.129 30.4085C280.924 30.4815 280.647 30.5326 280.296 30.5618C279.946 30.6057 279.5 30.6276 278.96 30.6276C278.419 30.6276 277.974 30.6057 277.624 30.5618C277.273 30.5326 276.988 30.4815 276.769 30.4085C276.565 30.3355 276.419 30.2478 276.331 30.1456C276.243 30.0287 276.199 29.8973 276.199 29.7512V10.2092C276.199 10.0631 276.236 9.93899 276.309 9.83675C276.382 9.71991 276.513 9.62497 276.703 9.55194C276.893 9.47892 277.134 9.4278 277.426 9.39859C277.733 9.35477 278.113 9.33286 278.566 9.33286C279.033 9.33286 279.42 9.35477 279.727 9.39859C280.033 9.4278 280.267 9.47892 280.428 9.55194C280.603 9.62497 280.727 9.71991 280.8 9.83675C280.873 9.93899 280.91 10.0631 280.91 10.2092V12.4657C281.991 11.2973 283.086 10.421 284.196 9.83675C285.321 9.25253 286.489 8.96042 287.701 8.96042C289.03 8.96042 290.148 9.17951 291.053 9.61767C291.973 10.0558 292.711 10.6547 293.266 11.4141C293.836 12.159 294.244 13.0353 294.493 14.0431C294.741 15.0509 294.865 16.2631 294.865 17.6799V29.7512Z" fill="white"/>
</svg>
